HIERARCHY
ROOT joint_0
{
	OFFSET 0.000000 0.000000 0.000000
	CHANNELS 6 Xposition Yposition Zposition Zrotation Yrotation Xrotation 
	JOINT joint_1
	{
		OFFSET 4.520508 -1.939880 86.268921
		CHANNELS 3 Zrotation Yrotation Xrotation
		JOINT joint_2
		{
			OFFSET -4.459717 -0.438538 78.934082
			CHANNELS 3 Zrotation Yrotation Xrotation
			JOINT joint_3
			{
				OFFSET -5.197754 -0.781128 78.796997
				CHANNELS 3 Zrotation Yrotation Xrotation
				JOINT joint_4
				{
					OFFSET 2.952026 -3.710571 109.812988
					CHANNELS 3 Zrotation Yrotation Xrotation
					JOINT joint_5
					{
						OFFSET 24.716797 -5.488037 87.903931
						CHANNELS 3 Zrotation Yrotation Xrotation
						End Site
						{
							OFFSET 0.000000 0.000000 0.000000
						}
					}
				}
				JOINT joint_6
				{
					OFFSET -3.154419 -25.484680 60.934937
					CHANNELS 3 Zrotation Yrotation Xrotation
					JOINT joint_7
					{
						OFFSET -28.997192 -144.472229 -32.671997
						CHANNELS 3 Zrotation Yrotation Xrotation
						JOINT joint_8
						{
							OFFSET 19.867676 -18.614380 -249.897949
							CHANNELS 3 Zrotation Yrotation Xrotation
							JOINT joint_9
							{
								OFFSET 5.281982 -13.816650 -264.993042
								CHANNELS 3 Zrotation Yrotation Xrotation
								End Site
								{
									OFFSET 0.000000 0.000000 0.000000
								}
							}
						}
					}
				}
				JOINT joint_10
				{
					OFFSET 6.494995 21.336792 62.257935
					CHANNELS 3 Zrotation Yrotation Xrotation
					JOINT joint_11
					{
						OFFSET 31.106567 145.200745 -27.007935
						CHANNELS 3 Zrotation Yrotation Xrotation
						JOINT joint_12
						{
							OFFSET 29.119141 24.684326 -248.460083
							CHANNELS 3 Zrotation Yrotation Xrotation
							JOINT joint_13
							{
								OFFSET 21.220093 31.248413 -262.703979
								CHANNELS 3 Zrotation Yrotation Xrotation
								End Site
								{
									OFFSET 0.000000 0.000000 0.000000
								}
							}
						}
					}
				}
			}
		}
	}
	JOINT joint_14
	{
		OFFSET -15.458496 -88.861694 -109.593018
		CHANNELS 3 Zrotation Yrotation Xrotation
		JOINT joint_15
		{
			OFFSET -6.193359 6.837952 -506.710999
			CHANNELS 3 Zrotation Yrotation Xrotation
			JOINT joint_16
			{
				OFFSET -35.096680 13.289795 -435.677025
				CHANNELS 3 Zrotation Yrotation Xrotation
				JOINT joint_17
				{
					OFFSET 158.491211 -33.916565 -71.771002
					CHANNELS 3 Zrotation Yrotation Xrotation
					End Site
					{
						OFFSET 0.000000 0.000000 0.000000
					}
				}
			}
		}
	}
	JOINT joint_18
	{
		OFFSET 23.116943 86.574158 -110.082031
		CHANNELS 3 Zrotation Yrotation Xrotation
		JOINT joint_19
		{
			OFFSET -6.125854 -0.283569 -506.757019
			CHANNELS 3 Zrotation Yrotation Xrotation
			JOINT joint_20
			{
				OFFSET -63.240234 11.589966 -432.537994
				CHANNELS 3 Zrotation Yrotation Xrotation
				JOINT joint_21
				{
					OFFSET 156.074219 -41.487305 -73.077999
					CHANNELS 3 Zrotation Yrotation Xrotation
					End Site
					{
						OFFSET 0.000000 0.000000 0.000000
					}
				}
			}
		}
	}
}
MOTION
Frames: 7
Frame Time: 0.016667
-1279.851074 923.266418 1141.625977 7.402119 -0.366639 0.116624 -0.176031 0.939235 -1.318160 -0.085948 -0.208774 0.312218 -0.114092 0.177828 -0.179225 -0.442173 1.324754 1.830734 0.000000 0.000000 0.000000 -0.148722 0.289244 -0.120630 0.127310 0.039901 0.813333 -0.057285 0.631844 -0.956902 0.000000 0.000000 0.000000 0.185310 0.139783 0.115891 0.006260 0.074464 0.266826 0.141097 0.432957 1.102657 0.000000 0.000000 0.000000 -0.169890 -0.187627 -0.784145 -0.151860 1.950397 0.262616 -0.177352 -0.366324 -0.158770 0.000000 0.000000 0.000000 0.629449 0.714860 0.374439 0.640953 -1.379571 -0.293433 0.586402 1.276105 0.614031 0.000000 0.000000 0.000000 
-1279.847168 923.178467 1141.628052 7.387213 -0.363258 0.116855 -0.172763 0.951772 -1.312581 -0.083146 -0.212408 0.310914 -0.111109 0.179102 -0.178514 -0.441281 1.334286 1.829461 0.000000 0.000000 0.000000 -0.143544 0.286920 -0.130443 0.126554 0.039361 0.801284 -0.058088 0.645704 -0.955818 0.000000 0.000000 0.000000 0.187823 0.148127 0.123145 0.008390 0.082394 0.275639 0.143009 0.449132 1.101708 0.000000 0.000000 0.000000 -0.165491 -0.192496 -0.781339 -0.147425 1.948587 0.265694 -0.172776 -0.363560 -0.156105 0.000000 0.000000 0.000000 0.634474 0.709269 0.378254 0.645982 -1.373337 -0.291809 0.591209 1.267924 0.614106 0.000000 0.000000 0.000000 
-1279.832642 923.098267 1141.630981 7.370163 -0.359297 0.116573 -0.171141 0.963579 -1.305134 -0.082131 -0.214539 0.308998 -0.109844 0.182245 -0.177378 -0.440167 1.341417 1.826950 0.000000 0.000000 0.000000 -0.135713 0.283422 -0.141147 0.126088 0.037738 0.790556 -0.059184 0.664252 -0.955417 0.000000 0.000000 0.000000 0.192941 0.155518 0.131934 0.009934 0.090149 0.279602 0.144248 0.461172 1.098651 0.000000 0.000000 0.000000 -0.160366 -0.197128 -0.779019 -0.142296 1.946027 0.269978 -0.167420 -0.360619 -0.153049 0.000000 0.000000 0.000000 0.640703 0.703010 0.381166 0.652173 -1.365075 -0.288200 0.597323 1.258110 0.614359 0.000000 0.000000 0.000000 
-1279.813354 923.021423 1141.630981 7.355256 -0.357401 0.115663 -0.170600 0.981198 -1.297672 -0.082119 -0.218797 0.308949 -0.109740 0.184231 -0.176987 -0.438655 1.349783 1.823305 0.000000 0.000000 0.000000 -0.131932 0.281897 -0.151369 0.125240 0.037437 0.779398 -0.059846 0.676840 -0.951988 0.000000 0.000000 0.000000 0.193394 0.162260 0.138038 0.011611 0.097363 0.284536 0.144801 0.469965 1.091900 0.000000 0.000000 0.000000 -0.155939 -0.200139 -0.775508 -0.137832 1.945965 0.273074 -0.162869 -0.359500 -0.150748 0.000000 0.000000 0.000000 0.646751 0.697321 0.384233 0.658176 -1.353225 -0.283922 0.603254 1.246584 0.614071 0.000000 0.000000 0.000000 
-1279.790405 922.949768 1141.629028 7.344004 -0.357995 0.113711 -0.172857 1.002505 -1.287432 -0.085213 -0.222758 0.306660 -0.112494 0.188383 -0.175263 -0.436406 1.356293 1.816746 0.000000 0.000000 0.000000 -0.126756 0.280462 -0.159800 0.123678 0.038654 0.765261 -0.059786 0.679013 -0.944578 0.000000 0.000000 0.000000 0.193901 0.166837 0.138774 0.013485 0.100522 0.293042 0.144785 0.477197 1.080284 0.000000 0.000000 0.000000 -0.152395 -0.201511 -0.770851 -0.134205 1.949776 0.275754 -0.159263 -0.360979 -0.149431 0.000000 0.000000 0.000000 0.652111 0.691681 0.387751 0.663479 -1.336044 -0.278842 0.608477 1.234178 0.613219 0.000000 0.000000 0.000000 
-1279.761841 922.882568 1141.625000 7.335232 -0.359828 0.111210 -0.176926 1.026503 -1.275864 -0.090220 -0.226391 0.304158 -0.117166 0.192338 -0.173742 -0.433962 1.361937 1.809349 0.000000 0.000000 0.000000 -0.123127 0.280311 -0.167528 0.121758 0.041093 0.750772 -0.059256 0.674451 -0.934543 0.000000 0.000000 0.000000 0.192658 0.170258 0.137193 0.015384 0.102232 0.302136 0.144074 0.481340 1.064619 0.000000 0.000000 0.000000 -0.149501 -0.202216 -0.765322 -0.131182 1.956346 0.277572 -0.156384 -0.364233 -0.148823 0.000000 0.000000 0.000000 0.656969 0.685874 0.391318 0.668272 -1.315524 -0.273143 0.613213 1.220385 0.611770 0.000000 0.000000 0.000000 
-1279.726196 922.814880 1141.624023 7.325240 -0.362314 0.108328 -0.181479 1.052521 -1.263518 -0.095794 -0.231628 0.301210 -0.122308 0.197242 -0.171592 -0.431619 1.368975 1.802581 0.000000 0.000000 0.000000 -0.120097 0.280964 -0.175054 0.120109 0.043562 0.739361 -0.058785 0.670814 -0.924799 0.000000 0.000000 0.000000 0.191691 0.172186 0.133790 0.016728 0.102497 0.308481 0.143337 0.484088 1.050874 0.000000 0.000000 0.000000 -0.146478 -0.203362 -0.757042 -0.127908 1.965607 0.275042 -0.153654 -0.366656 -0.148105 0.000000 0.000000 0.000000 0.663101 0.681404 0.395678 0.674365 -1.295563 -0.268332 0.619056 1.207469 0.611074 0.000000 0.000000 0.000000 
